<svg width="59" height="76" viewBox="0 0 59 76" fill="none" xmlns="http://www.w3.org/2000/svg">
<path d="M6.24387 7.31283C6.24387 6.93405 6.09084 6.64439 5.78476 6.44385C5.47869 6.23886 4.92776 6.02496 4.13197 5.80214C3.33619 5.57487 2.70619 5.35205 2.24198 5.13369C0.97688 4.53654 0.344331 3.73217 0.344331 2.72059C0.344331 2.19474 0.512671 1.72683 0.84935 1.31684C1.19113 0.902406 1.6783 0.579323 2.31084 0.347594C2.94849 0.115865 3.66266 0 4.45335 0C5.24914 0 5.9582 0.127005 6.58055 0.381016C7.2029 0.63057 7.68496 0.984848 8.02674 1.44385C8.37362 1.90285 8.54706 2.42424 8.54706 3.00802H6.25152C6.25152 2.56239 6.09084 2.21702 5.76946 1.97193C5.44808 1.72237 4.99663 1.59759 4.41509 1.59759C3.85396 1.59759 3.41781 1.70232 3.10663 1.91176C2.79546 2.11676 2.63987 2.38859 2.63987 2.72727C2.63987 3.04367 2.82097 3.30882 3.18315 3.52273C3.55044 3.73663 4.08861 3.93717 4.79768 4.12433C6.10359 4.46747 7.05496 4.89305 7.6518 5.40107C8.24864 5.90909 8.54706 6.54189 8.54706 7.29947C8.54706 8.14171 8.18233 8.80348 7.45286 9.28476C6.72338 9.76159 5.7414 10 4.50691 10C3.64991 10 2.86943 9.86408 2.16546 9.59225C1.46149 9.31595 0.923318 8.93939 0.55093 8.46257C0.183643 7.98574 0 7.43316 0 6.80481H2.30319C2.30319 7.87879 3.03777 8.41578 4.50691 8.41578C5.05274 8.41578 5.47869 8.31996 5.78476 8.12834C6.09084 7.93226 6.24387 7.66043 6.24387 7.31283Z" fill="white"/>
<path d="M21.2827 0.13369V6.54412C21.2827 7.60918 20.9001 8.45143 20.135 9.07086C19.3749 9.69029 18.3342 10 17.013 10C15.7122 10 14.6792 9.6992 13.914 9.09759C13.1489 8.49599 12.7586 7.66934 12.7433 6.61765V0.13369H15.0389V6.55749C15.0389 7.19474 15.2123 7.66043 15.5592 7.95455C15.9112 8.24421 16.3958 8.38904 17.013 8.38904C18.3036 8.38904 18.9591 7.79635 18.9795 6.61096V0.13369H21.2827Z" fill="white"/>
<path d="M28.203 6.43717V9.86631H25.9075V0.13369H30.2537C31.0903 0.13369 31.8249 0.26738 32.4574 0.534759C33.0951 0.802139 33.5848 1.18316 33.9266 1.67781C34.2683 2.168 34.4392 2.72727 34.4392 3.35562C34.4392 4.30927 34.0643 5.06239 33.3144 5.61497C32.5696 6.1631 31.5367 6.43717 30.2154 6.43717H28.203ZM28.203 4.81283H30.2537C30.8607 4.81283 31.3224 4.68806 31.6387 4.4385C31.9601 4.18895 32.1207 3.83244 32.1207 3.36898C32.1207 2.89216 31.9601 2.50668 31.6387 2.21257C31.3173 1.91845 30.8735 1.76693 30.3073 1.75802H28.203V4.81283Z" fill="white"/>
<path d="M45.4685 5.6484H41.0611V8.25535H46.2337V9.86631H38.7656V0.13369H46.2184V1.75802H41.0611V4.07754H45.4685V5.6484Z" fill="white"/>
<path d="M54.4472 6.30348H52.6184V9.86631H50.3229V0.13369H54.4625C55.7786 0.13369 56.7937 0.389929 57.5079 0.902406C58.2221 1.41488 58.5792 2.13904 58.5792 3.07487C58.5792 3.73886 58.4134 4.29367 58.0818 4.73931C57.7553 5.18048 57.2579 5.53253 56.5897 5.79545L59 9.77273V9.86631H56.5361L54.4472 6.30348ZM52.6184 4.67914H54.4701C55.0466 4.67914 55.4929 4.55214 55.8092 4.29813C56.1255 4.03966 56.2836 3.68538 56.2836 3.23529C56.2836 2.77629 56.1331 2.41533 55.8322 2.15241C55.5363 1.88948 55.0797 1.75802 54.4625 1.75802H52.6184V4.67914Z" fill="white"/>
<path d="M38.6329 47.8254V16H41.5425V47.8254C41.5425 50.8413 40.3571 53.4339 37.9863 55.6032C35.6425 57.7725 32.8137 58.8571 29.5 58.8571C26.1863 58.8571 23.3441 57.7725 20.9733 55.6032C18.6295 53.4339 17.4575 50.8413 17.4575 47.8254V16H20.3671V47.8254C20.3671 50.0741 21.2562 52.0053 23.0342 53.619C24.8393 55.2063 26.9945 56 29.5 56C32.0055 56 34.1473 55.2063 35.9253 53.619C37.7304 52.0053 38.6329 50.0741 38.6329 47.8254ZM44.4521 47.8254V16H47.3616V47.8254C47.3616 52.455 45.6105 56.4101 42.1082 59.6905C38.6059 62.9444 34.4032 64.5714 29.5 64.5714C24.5968 64.5714 20.3941 62.9444 16.8918 59.6905C13.3895 56.4101 11.6384 52.455 11.6384 47.8254V16H14.5479V47.8254C14.5479 51.6614 16.0027 54.9418 18.9123 57.6667C21.8489 60.3651 25.3781 61.7143 29.5 61.7143C33.595 61.7143 37.1107 60.3651 40.0473 57.6667C42.9838 54.9418 44.4521 51.6614 44.4521 47.8254ZM50.2712 47.8254V16H53.1808V47.8254C53.1808 51.873 52.1167 55.6296 49.9884 59.0952C47.86 62.5344 44.9774 65.2593 41.3404 67.2698C37.7034 69.2804 33.7566 70.2857 29.5 70.2857C25.2434 70.2857 21.2966 69.2804 17.6596 67.2698C14.0226 65.2593 11.14 62.5344 9.01164 59.0952C6.88333 55.6296 5.81918 51.873 5.81918 47.8254V16H8.72877V47.8254C8.72877 51.3439 9.65822 54.6111 11.5171 57.627C13.376 60.6429 15.895 63.037 19.074 64.8095C22.2799 66.5556 25.7553 67.4286 29.5 67.4286C33.2448 67.4286 36.7066 66.5556 39.8856 64.8095C43.0916 63.037 45.624 60.6429 47.4829 57.627C49.3418 54.6111 50.2712 51.3439 50.2712 47.8254ZM56.0904 47.8254V16H59V47.8254C59 51.6349 58.2187 55.2857 56.6562 58.7778C55.0936 62.2434 52.9922 65.2328 50.3521 67.746C47.7119 70.2593 44.5733 72.2566 40.9363 73.7381C37.2993 75.246 33.4872 76 29.5 76C25.5128 76 21.7007 75.246 18.0637 73.7381C14.4267 72.2566 11.2881 70.2593 8.64795 67.746C6.00776 65.2328 3.90639 62.2434 2.34384 58.7778C0.781278 55.2857 0 51.6349 0 47.8254V16H2.90959V47.8254C2.90959 52.3757 4.09498 56.5952 6.46575 60.4841C8.86347 64.373 12.0963 67.455 16.1644 69.7302C20.2594 72.0053 24.7046 73.1429 29.5 73.1429C34.2954 73.1429 38.7272 72.0053 42.7952 69.7302C46.8902 67.455 50.1231 64.373 52.4938 60.4841C54.8916 56.5952 56.0904 52.3757 56.0904 47.8254Z" fill="url(#paint0_linear)"/>
<defs>
<linearGradient id="paint0_linear" x1="29.5211" y1="-1.513" x2="29.521" y2="82.5937" gradientUnits="userSpaceOnUse">
<stop stop-color="#FF1654"/>
<stop offset="1" stop-color="#F3FFBD"/>
</linearGradient>
</defs>
</svg>
